<?xml version="1.0" standalone="no"?>
<!DOCTYPE svg PUBLIC "-//W3C//DTD SVG 20010904//EN"
 "http://www.w3.org/TR/2001/REC-SVG-20010904/DTD/svg10.dtd">
<svg version="1.0" xmlns="http://www.w3.org/2000/svg"
 width="595.000000pt" height="595.000000pt" viewBox="0 0 595.000000 595.000000"
 preserveAspectRatio="xMidYMid meet">
<metadata>
Created by potrace 1.11, written by Peter Selinger 2001-2013
</metadata>
<g transform="translate(0.000000,595.000000) scale(0.100000,-0.100000)"
fill="#000000" stroke="none">
<path d="M1019 3904 c-408 -76 -846 -471 -944 -853 -51 -200 8 -405 148 -510
184 -139 419 -101 618 100 92 92 139 187 146 295 6 105 -18 157 -90 193 -53
26 -140 31 -180 9 -20 -10 -20 -11 -2 -25 11 -8 32 -11 50 -9 42 7 97 -10 123
-37 110 -117 -71 -469 -280 -543 -123 -43 -242 -20 -331 65 -131 124 -136 395
-13 639 65 128 212 302 351 413 104 83 254 167 365 205 80 27 222 26 270 -1
53 -31 97 -96 111 -162 14 -71 7 -231 -16 -328 -9 -38 -18 -77 -20 -85 -9 -40
-78 -257 -113 -355 -102 -281 -238 -588 -328 -736 -19 -31 -34 -64 -34 -73 0
-36 93 -43 137 -9 32 24 36 31 154 293 217 482 325 673 553 975 144 191 229
265 306 265 87 0 109 -70 83 -262 -48 -355 -172 -722 -366 -1079 -26 -48 -47
-93 -47 -101 0 -23 34 -48 65 -48 53 0 90 35 140 133 188 367 518 856 711
1053 203 207 334 259 340 133 3 -64 -16 -117 -153 -423 -190 -427 -241 -596
-230 -759 9 -139 76 -233 196 -278 64 -23 179 -35 201 -20 23 16 5 24 -60 27
-106 5 -174 55 -199 149 -10 39 -8 202 4 260 40 195 130 433 293 775 108 227
122 359 45 420 -81 64 -261 -27 -459 -232 -113 -118 -342 -412 -482 -620 -29
-43 -54 -78 -55 -78 -2 0 18 64 44 143 126 385 167 592 146 728 -9 56 -57 115
-103 128 -77 22 -185 -10 -282 -81 -103 -76 -272 -307 -425 -579 -14 -24 -29
-45 -35 -47 -13 -4 -4 33 41 168 100 301 99 531 -3 660 -76 96 -223 135 -391
104z"/>
<path d="M5513 3752 c-103 -56 -210 -219 -363 -557 -68 -150 -190 -483 -190
-520 0 -35 -148 -288 -208 -357 -39 -43 -88 -66 -105 -49 -17 17 -11 101 13
173 25 73 99 223 142 286 17 24 28 46 25 48 -3 3 -32 6 -66 7 -77 3 -87 -7
-176 -168 -131 -234 -228 -345 -303 -345 -39 0 -54 20 -54 72 -1 185 287 558
433 561 46 1 82 -17 100 -49 15 -29 43 -28 47 1 3 25 -40 68 -88 87 -109 44
-276 -8 -390 -122 -52 -52 -133 -176 -155 -238 -54 -148 -124 -256 -197 -303
-41 -26 -101 -43 -112 -32 -3 3 15 26 40 52 100 101 114 204 50 356 -50 117
-56 140 -57 201 -2 97 48 151 127 139 43 -6 45 -5 35 13 -13 25 -32 32 -86 32
-39 0 -49 -6 -93 -48 -39 -38 -67 -83 -127 -203 -107 -217 -150 -292 -173
-302 -20 -9 -52 -66 -52 -94 0 -25 -69 -103 -106 -121 -44 -21 -57 -8 -57 55
1 83 83 281 165 400 16 25 28 47 25 49 -3 3 -32 6 -65 7 -77 3 -84 -4 -174
-162 -143 -254 -228 -351 -308 -351 -26 0 -33 6 -45 33 -59 142 256 589 422
598 56 3 86 -12 111 -56 11 -20 42 -9 42 15 0 25 -62 77 -107 89 -74 21 -166
6 -257 -42 -213 -113 -377 -462 -293 -627 68 -137 209 -75 369 160 16 24 16
24 7 -20 -13 -59 -9 -107 13 -152 42 -87 133 -83 224 9 25 26 38 34 42 25 2
-8 17 -29 33 -47 37 -41 101 -61 167 -50 26 5 76 7 112 6 47 -1 79 4 112 18
45 19 117 82 150 131 l17 25 1 -30 c1 -43 34 -111 64 -130 37 -25 105 -15 158
21 36 25 118 119 170 194 l17 25 -8 -30 c-16 -59 -7 -148 17 -183 25 -34 76
-54 114 -45 61 16 143 102 219 230 l25 41 0 -81 c1 -131 45 -187 155 -195 140
-10 279 94 377 283 66 126 101 210 92 219 -14 14 -35 -9 -71 -77 -133 -260
-228 -370 -319 -370 -110 0 -137 129 -70 336 29 87 34 96 113 178 95 99 101
106 177 213 111 156 235 392 286 543 30 89 31 166 4 211 -17 28 -25 32 -62 32
-24 -1 -57 -9 -75 -18z m99 -94 c16 -46 -42 -212 -127 -368 -78 -141 -98 -175
-154 -257 -62 -91 -193 -254 -199 -248 -7 7 131 323 224 510 103 208 151 290
200 341 33 36 50 42 56 22z m-1768 -878 c3 -41 8 -88 11 -105 3 -16 7 -77 9
-135 5 -110 -9 -175 -48 -235 -25 -37 -43 -41 -73 -14 -33 31 -53 78 -53 129
0 26 -7 47 -19 59 -20 20 -19 22 72 200 50 99 92 179 93 178 1 -1 4 -36 8 -77z
m-175 -435 c6 -23 25 -55 42 -73 l31 -32 -40 0 c-32 0 -45 6 -61 26 -12 15
-21 36 -21 46 0 23 33 96 36 82 2 -5 8 -27 13 -49z"/>
</g>
</svg>
